<mxfile host="app.diagrams.net" modified="2024-02-07T12:10:04.648Z" agent="Mozilla/5.0 (Windows NT 10.0; Win64; x64) AppleWebKit/537.36 (KHTML, like Gecko) Chrome/121.0.0.0 Safari/537.36 Edg/121.0.0.0" version="23.1.1" etag="1KSCxMab42sSaGPL0i4b" type="github">
  <diagram name="Page-1" id="AYpuEztkco-y4h1Dnp0N">
    <mxGraphModel>
      <root>
        <mxCell id="0" />
        <mxCell id="1" parent="0" />
      </root>
    </mxGraphModel>
  </diagram>
</mxfile>
